<svg xmlns="http://www.w3.org/2000/svg" xmlns:xlink="http://www.w3.org/1999/xlink" version="1.1" x="0px" y="0px" viewBox="0 0 64 64" style="enable-background:new 0 0 64 64;" xml:space="preserve">
<g id="_x31_3">
	<path style="fill:#fff;" d="M63.985,34.079c-0.078-0.453-0.439-0.78-0.897-0.812c-1.731-0.125-4.657-0.311-8.202-0.443   l-4.508-4.431c-0.111-0.109-0.259-0.169-0.415-0.169h-3.922l-0.853-2.355c-0.085-0.234-0.307-0.39-0.556-0.39h-6.42l-4.443-5.47   c-0.121-0.149-0.308-0.235-0.5-0.217l-3.325,0.231c-0.172,0.012-0.331,0.099-0.434,0.237c-0.103,0.139-0.14,0.316-0.102,0.484   l1.168,5.128l-0.795,0.749v-0.039h-7.2c-0.218,0-0.418,0.12-0.521,0.312c-0.103,0.192-0.092,0.425,0.029,0.607l1.577,2.373   c0.109,0.165,0.294,0.264,0.492,0.264h1.89l-0.817,0.77l-7.327,1.543c-0.103,0.022-0.198,0.07-0.276,0.141l-4.819,4.368   c-5.022,0.478-9.189,0.441-11.383,0.364c-0.47-0.021-0.911,0.204-1.18,0.589c-0.269,0.386-0.323,0.877-0.144,1.312l1.692,4.129   c0.213,0.52,0.714,0.857,1.277,0.857H49.24c0.341,0,0.654-0.173,0.836-0.464c0.189-0.303,1.725-1.626,6.284-4.664   c3.035-2.022,5.51-3.256,7.052-3.935C63.833,34.962,64.064,34.532,63.985,34.079z M49.721,29.406l1.065,1.047H39.85l0.008-0.987   l5.775-0.06H49.721z M33.045,20.993l3.643,4.486h-4.988l-0.985-4.324L33.045,20.993z M24.477,28.955l-0.791-1.191h4.883   l-1.264,1.191H24.477z M18.306,33.574l7.333-1.544c0.107-0.022,0.205-0.074,0.284-0.148l1.851-1.744h0.038v-0.035l3.652-3.441   h6.467h6.287l0.569,1.571l-5.521,0.058c-0.322,0.003-0.582,0.264-0.585,0.586l-0.018,2.163c-0.001,0.158,0.06,0.31,0.171,0.422   c0.111,0.112,0.262,0.175,0.42,0.175H51.99l1.149,1.129c-8.691-0.26-20.258-0.122-27.488,1.89   c-3.709,1.032-7.427,1.683-10.843,2.089L18.306,33.574z M59.909,35.559c-8.728-0.462-24.141-0.819-33.024,1.652l0.212,0.76   c8.366-2.329,22.683-2.111,31.521-1.688c-0.899,0.522-1.874,1.122-2.914,1.816c-2.639,1.758-5.871,4.01-6.567,4.93H3.072   c-0.08,0-0.152-0.048-0.182-0.122h0l-1.692-4.129c-0.035-0.087-0.002-0.155,0.02-0.188c0.022-0.032,0.072-0.084,0.16-0.084   c0.003,0,0.005,0,0.008,0c3.966,0.139,14.303,0.151,24.581-2.709c10.219-2.844,29.425-1.869,36.249-1.404   C61.559,34.698,60.78,35.087,59.909,35.559z"/>
</g>
<g id="Layer_1">
</g>
</svg>