<?xml version="1.0" standalone="no"?>
<!DOCTYPE svg PUBLIC "-//W3C//DTD SVG 20010904//EN"
 "http://www.w3.org/TR/2001/REC-SVG-20010904/DTD/svg10.dtd">
<svg version="1.0" xmlns="http://www.w3.org/2000/svg"
 width="1130.000000pt" height="1280.000000pt" viewBox="0 0 1130.000000 1280.000000"
 preserveAspectRatio="xMidYMid meet">
<metadata>
Created by potrace 1.15, written by Peter Selinger 2001-2017
</metadata>
<g transform="translate(0.000000,1280.000000) scale(0.100000,-0.100000)"
fill="#000000" stroke="none">
<path d="M3125 12793 c-22 -2 -88 -13 -148 -24 -507 -94 -941 -427 -1167 -894
-246 -508 -215 -1098 83 -1580 192 -310 500 -555 854 -678 153 -54 288 -79
450 -85 l141 -4 91 -257 c50 -141 91 -261 91 -267 0 -6 -25 -18 -55 -28 -184
-58 -289 -165 -310 -316 -4 -32 -13 -51 -23 -55 -10 -4 -150 -54 -312 -111
-162 -58 -369 -132 -460 -164 -91 -32 -331 -118 -535 -190 -203 -72 -406 -144
-449 -160 l-79 -29 -20 27 c-47 63 -198 203 -270 250 -129 84 -247 121 -387
122 -284 0 -497 -192 -587 -527 -23 -87 -26 -117 -27 -268 0 -142 3 -187 22
-273 95 -427 331 -759 647 -908 111 -52 173 -66 283 -67 274 -1 486 182 576
496 25 87 50 287 44 349 l-3 30 155 55 c166 59 557 198 1038 369 163 58 378
134 476 169 l179 65 44 -41 c24 -22 65 -49 91 -61 56 -25 180 -35 237 -19 27
7 41 7 46 0 3 -5 27 -90 53 -187 110 -409 284 -982 586 -1927 419 -1310 571
-1816 685 -2280 218 -888 218 -1368 2 -1468 -322 -150 -1018 -24 -1872 338
-177 75 -560 267 -695 349 -129 77 -261 173 -267 192 -5 16 173 96 332 148
l141 47 197 322 c169 275 195 323 180 329 -10 4 -686 95 -1503 203 -817 108
-1491 198 -1499 201 -9 3 -12 -2 -8 -18 2 -13 103 -266 224 -563 121 -297 410
-1010 643 -1585 233 -575 426 -1049 430 -1053 16 -18 98 148 128 258 51 186
127 520 192 837 l22 107 72 -76 c39 -41 74 -81 78 -88 14 -23 314 -295 443
-400 303 -249 969 -728 1202 -865 846 -500 2093 -670 3153 -429 586 134 1084
377 1586 774 55 44 139 110 185 146 433 341 769 792 1003 1348 155 368 248
706 416 1518 45 213 103 478 130 588 52 211 126 465 139 478 5 5 50 -27 102
-70 143 -120 378 -307 534 -425 l140 -106 153 -50 152 -50 0 41 c0 26 -40 161
-104 357 -58 173 -218 659 -356 1080 -138 421 -309 941 -380 1155 -71 215
-148 449 -171 520 -22 72 -45 134 -49 138 -4 5 -466 -499 -1026 -1120 -560
-620 -1022 -1131 -1027 -1134 -5 -4 -5 -9 -1 -12 5 -2 154 -52 331 -111 l322
-105 68 28 c107 46 261 97 347 116 76 17 80 17 93 -1 30 -41 6 -213 -52 -369
-135 -360 -425 -890 -767 -1396 -101 -151 -136 -194 -242 -297 -209 -203 -389
-335 -549 -400 -89 -36 -216 -42 -281 -13 -78 34 -143 88 -209 175 -147 189
-225 337 -440 821 -312 707 -994 2346 -1675 4030 l-150 370 66 31 c114 53 196
161 211 278 l6 49 245 87 c768 273 1256 446 1420 504 l184 66 25 -32 c97 -127
259 -261 384 -318 136 -62 296 -79 422 -45 302 81 492 419 472 840 -24 481
-288 931 -652 1111 -115 56 -187 74 -300 74 -166 0 -269 -44 -390 -165 -146
-144 -217 -329 -230 -595 l-4 -95 -43 -17 c-24 -10 -209 -76 -413 -148 -203
-72 -444 -158 -535 -190 -687 -245 -845 -300 -853 -300 -5 0 -27 16 -48 35
-50 45 -101 70 -171 84 -70 15 -125 8 -237 -30 -47 -16 -85 -28 -86 -26 -1 1
-44 119 -94 262 l-92 260 53 44 c323 269 528 644 583 1068 50 381 -45 776
-267 1110 -98 148 -293 343 -441 442 -320 212 -695 308 -1072 274z m365 -828
c349 -93 597 -395 617 -752 14 -241 -70 -465 -237 -633 -108 -110 -232 -181
-381 -222 -66 -18 -110 -22 -209 -22 -150 0 -226 17 -355 79 -262 128 -428
356 -466 643 -38 284 88 587 316 760 88 67 208 125 305 147 41 9 80 19 85 21
27 10 266 -5 325 -21z"/>
</g>
</svg>
